<svg width="20" height="20" viewBox="0 0 20 20" fill="none" xmlns="http://www.w3.org/2000/svg">
<path d="M5.4 18C4.73333 18 4.16667 17.7667 3.7 17.3C3.23333 16.8333 3 16.2667 3 15.6V13.2H5.4V2H17.4V15.6C17.4 16.2667 17.1667 16.8333 16.7 17.3C16.2333 17.7667 15.6667 18 15 18H5.4ZM15 16.4C15.2267 16.4 15.4167 16.3233 15.57 16.17C15.7233 16.0167 15.8 15.8267 15.8 15.6V3.6H7V13.2H14.2V15.6C14.2 15.8267 14.2767 16.0167 14.43 16.17C14.5833 16.3233 14.7733 16.4 15 16.4ZM7.8 7.6V6H15V7.6H7.8ZM7.8 10V8.4H15V10H7.8ZM5.4 16.4H12.6V14.8H4.6V15.6C4.6 15.8267 4.67667 16.0167 4.83 16.17C4.98333 16.3233 5.17333 16.4 5.4 16.4ZM5.4 16.4H4.6H12.6H5.4Z" fill="#242521"/>
</svg>
