<svg width="20" height="20" viewBox="0 0 20 20" fill="none" xmlns="http://www.w3.org/2000/svg">
<path d="M4 15.6V14H5.6V8.4C5.6 7.29333 5.93333 6.31 6.6 5.45C7.26667 4.59 8.13333 4.02667 9.2 3.76V3.2C9.2 2.86667 9.31667 2.58333 9.55 2.35C9.78333 2.11667 10.0667 2 10.4 2C10.7333 2 11.0167 2.11667 11.25 2.35C11.4833 2.58333 11.6 2.86667 11.6 3.2V3.76C12.6667 4.02667 13.5333 4.59 14.2 5.45C14.8667 6.31 15.2 7.29333 15.2 8.4V14H16.8V15.6H4ZM10.4 18C9.96 18 9.58333 17.8433 9.27 17.53C8.95667 17.2167 8.8 16.84 8.8 16.4H12C12 16.84 11.8433 17.2167 11.53 17.53C11.2167 17.8433 10.84 18 10.4 18ZM7.2 14H13.6V8.4C13.6 7.52 13.2867 6.76667 12.66 6.14C12.0333 5.51333 11.28 5.2 10.4 5.2C9.52 5.2 8.76667 5.51333 8.14 6.14C7.51333 6.76667 7.2 7.52 7.2 8.4V14Z" fill="#242521"/>
</svg>
