<svg width="20" height="20" viewBox="0 0 20 20" fill="none" xmlns="http://www.w3.org/2000/svg">
<path d="M8.41053 12.9474C8.41053 11.8105 8.51228 10.993 8.71579 10.4947C8.9193 9.99649 9.35088 9.45263 10.0105 8.86316C10.586 8.3579 11.0246 7.9193 11.3263 7.54737C11.6281 7.17544 11.7789 6.75088 11.7789 6.27368C11.7789 5.69825 11.586 5.22105 11.2 4.84211C10.814 4.46316 10.2772 4.27368 9.58947 4.27368C8.87368 4.27368 8.32983 4.49123 7.9579 4.92632C7.58597 5.3614 7.32281 5.80351 7.16842 6.25263L5 5.32632C5.29474 4.42807 5.83509 3.64912 6.62105 2.98947C7.40702 2.32982 8.39649 2 9.58947 2C11.0632 2 12.1965 2.41053 12.9895 3.23158C13.7825 4.05263 14.1789 5.0386 14.1789 6.18947C14.1789 6.89123 14.0281 7.49123 13.7263 7.98947C13.4246 8.48772 12.9509 9.05263 12.3053 9.68421C11.6175 10.3439 11.2 10.8456 11.0526 11.1895C10.9053 11.5333 10.8316 12.1193 10.8316 12.9474H8.41053ZM9.58947 18C9.12632 18 8.72983 17.8351 8.4 17.5053C8.07018 17.1754 7.90526 16.7789 7.90526 16.3158C7.90526 15.8526 8.07018 15.4561 8.4 15.1263C8.72983 14.7965 9.12632 14.6316 9.58947 14.6316C10.0526 14.6316 10.4491 14.7965 10.7789 15.1263C11.1088 15.4561 11.2737 15.8526 11.2737 16.3158C11.2737 16.7789 11.1088 17.1754 10.7789 17.5053C10.4491 17.8351 10.0526 18 9.58947 18Z" fill="#242521"/>
</svg>
